HIERARCHY
ROOT hip
{
  OFFSET 0.00112043 5.09927 -9.65472
  CHANNELS 6 Xposition Yposition Zposition Zrotation Xrotation Yrotation
  JOINT abdomen
  {
    OFFSET 0 -1.186 -1.5018
    CHANNELS 3 Zrotation Xrotation Yrotation
    JOINT abdomen2
    {
      OFFSET 0 9.964 0.2134
      CHANNELS 3 Zrotation Xrotation Yrotation
      JOINT chest
      {
        OFFSET 0 13.134 -3.2573
        CHANNELS 3 Zrotation Xrotation Yrotation
        JOINT neck
        {
          OFFSET 0 20.686 -1.6905
          CHANNELS 3 Zrotation Xrotation Yrotation
          JOINT head
          {
            OFFSET 0 7.238 -0.1237
            CHANNELS 3 Zrotation Xrotation Yrotation
            End Site
            {
              OFFSET 0 0 0
            }
          }
        }
        JOINT lCollar
        {
          OFFSET 1.7069 20.075 5.0056
          CHANNELS 3 Zrotation Xrotation Yrotation
          JOINT lShldr
          {
            OFFSET 13.6458 -0.047 -4.849
            CHANNELS 3 Zrotation Xrotation Yrotation
            JOINT lForeArm
            {
              OFFSET 28.3255 -0.9759 2.2888
              CHANNELS 3 Zrotation Xrotation Yrotation
              JOINT lHand
              {
                OFFSET 22.1583 -0.53 10.8316
                CHANNELS 3 Zrotation Xrotation Yrotation
                JOINT lThumb1
                {
                  OFFSET 0.786 0.112 2.5817
                  CHANNELS 3 Zrotation Xrotation Yrotation
                  JOINT lThumb2
                  {
                    OFFSET 0.3601 -0.878 4.2331
                    CHANNELS 3 Zrotation Xrotation Yrotation
                    JOINT lThumb2_End
                    {
                      OFFSET 1.8127 -1.216 2.2227
                      CHANNELS 3 Zrotation Xrotation Yrotation
                      End Site
                      {
                        OFFSET 0.0181 -0.0122 0.0222
                      }
                    }
                  }
                }
                JOINT lCarpal1
                {
                  OFFSET 0.9571 1.114 1.7695
                  CHANNELS 3 Zrotation Xrotation Yrotation
                  JOINT lIndex1
                  {
                    OFFSET 4.1246 0.487 4.1451
                    CHANNELS 3 Zrotation Xrotation Yrotation
                    JOINT lIndex2
                    {
                      OFFSET 3.4052 -1.454 2.7682
                      CHANNELS 3 Zrotation Xrotation Yrotation
                      JOINT lIndex2_End
                      {
                        OFFSET 1.4531 -1.795 1.2713
                        CHANNELS 3 Zrotation Xrotation Yrotation
                        End Site
                        {
                          OFFSET 0.0145 -0.0179 0.0127
                        }
                      }
                    }
                  }
                  JOINT lMid1
                  {
                    OFFSET 5.6954 0.21 2.1184
                    CHANNELS 3 Zrotation Xrotation Yrotation
                    JOINT lMid2
                    {
                      OFFSET 3.9766 -1.54 2.3863
                      CHANNELS 3 Zrotation Xrotation Yrotation
                      JOINT lMid2_End
                      {
                        OFFSET 1.4042 -1.926 1.125
                        CHANNELS 3 Zrotation Xrotation Yrotation
                        End Site
                        {
                          OFFSET 0.014 -0.0193 0.0113
                        }
                      }
                    }
                  }
                }
                JOINT lCarpal2
                {
                  OFFSET 2.0956 0.66 -0.3894
                  CHANNELS 3 Zrotation Xrotation Yrotation
                  JOINT lRing1
                  {
                    OFFSET 5.0395 -0.09 2.4971
                    CHANNELS 3 Zrotation Xrotation Yrotation
                    JOINT lRing2
                    {
                      OFFSET 3.7921 -1.552 1.4806
                      CHANNELS 3 Zrotation Xrotation Yrotation
                      JOINT lRing2_End
                      {
                        OFFSET 1.4655 -1.808 0.9609
                        CHANNELS 3 Zrotation Xrotation Yrotation
                        End Site
                        {
                          OFFSET 0.0147 -0.0181 0.0096
                        }
                      }
                    }
                  }
                  JOINT lPinky1
                  {
                    OFFSET 4.9141 -1.269 0.3591
                    CHANNELS 3 Zrotation Xrotation Yrotation
                    JOINT lPinky2
                    {
                      OFFSET 3.1477 -1.685 0.8462
                      CHANNELS 3 Zrotation Xrotation Yrotation
                      JOINT lPinky2_End
                      {
                        OFFSET 0.8055 -1.585 0.7955
                        CHANNELS 3 Zrotation Xrotation Yrotation
                        End Site
                        {
                          OFFSET 0.0081 -0.0158 0.008
                        }
                      }
                    }
                  }
                }
              }
            }
          }
        }
        JOINT rCollar
        {
          OFFSET -1.7069 20.075 5.0056
          CHANNELS 3 Zrotation Xrotation Yrotation
          JOINT rShldr
          {
            OFFSET -13.6458 -0.047 -4.849
            CHANNELS 3 Zrotation Xrotation Yrotation
            JOINT rForeArm
            {
              OFFSET -28.3255 -0.9759 2.2888
              CHANNELS 3 Zrotation Xrotation Yrotation
              JOINT rHand
              {
                OFFSET -22.1583 -0.53 10.8316
                CHANNELS 3 Zrotation Xrotation Yrotation
                JOINT rThumb1
                {
                  OFFSET -0.786 0.112 2.5817
                  CHANNELS 3 Zrotation Xrotation Yrotation
                  JOINT rThumb2
                  {
                    OFFSET -0.3601 -0.878 4.2331
                    CHANNELS 3 Zrotation Xrotation Yrotation
                    JOINT rThumb2_End
                    {
                      OFFSET -1.8127 -1.216 2.2227
                      CHANNELS 3 Zrotation Xrotation Yrotation
                      End Site
                      {
                        OFFSET -0.0181 -0.0122 0.0222
                      }
                    }
                  }
                }
                JOINT rCarpal1
                {
                  OFFSET -0.9571 1.114 1.7695
                  CHANNELS 3 Zrotation Xrotation Yrotation
                  JOINT rIndex1
                  {
                    OFFSET -4.1246 0.487 4.1451
                    CHANNELS 3 Zrotation Xrotation Yrotation
                    JOINT rIndex2
                    {
                      OFFSET -3.4052 -1.454 2.7682
                      CHANNELS 3 Zrotation Xrotation Yrotation
                      JOINT rIndex2_End
                      {
                        OFFSET -1.4531 -1.795 1.2713
                        CHANNELS 3 Zrotation Xrotation Yrotation
                        End Site
                        {
                          OFFSET -0.0145 -0.018 0.0127
                        }
                      }
                    }
                  }
                  JOINT rMid1
                  {
                    OFFSET -5.6954 0.21 2.1184
                    CHANNELS 3 Zrotation Xrotation Yrotation
                    JOINT rMid2
                    {
                      OFFSET -3.9766 -1.54 2.3863
                      CHANNELS 3 Zrotation Xrotation Yrotation
                      JOINT rMid2_End
                      {
                        OFFSET -1.4042 -1.926 1.125
                        CHANNELS 3 Zrotation Xrotation Yrotation
                        End Site
                        {
                          OFFSET -0.014 -0.0193 0.0113
                        }
                      }
                    }
                  }
                }
                JOINT rCarpal2
                {
                  OFFSET -2.0956 0.66 -0.3894
                  CHANNELS 3 Zrotation Xrotation Yrotation
                  JOINT rRing1
                  {
                    OFFSET -5.0395 -0.09 2.4971
                    CHANNELS 3 Zrotation Xrotation Yrotation
                    JOINT rRing2
                    {
                      OFFSET -3.7921 -1.552 1.4806
                      CHANNELS 3 Zrotation Xrotation Yrotation
                      JOINT rRing2_End
                      {
                        OFFSET -1.4655 -1.808 0.9609
                        CHANNELS 3 Zrotation Xrotation Yrotation
                        End Site
                        {
                          OFFSET -0.0147 -0.0181 0.0096
                        }
                      }
                    }
                  }
                  JOINT rPinky1
                  {
                    OFFSET -4.9141 -1.269 0.3592
                    CHANNELS 3 Zrotation Xrotation Yrotation
                    JOINT rPinky2
                    {
                      OFFSET -3.1477 -1.685 0.8462
                      CHANNELS 3 Zrotation Xrotation Yrotation
                      JOINT rPinky2_End
                      {
                        OFFSET -0.8055 -1.585 0.7955
                        CHANNELS 3 Zrotation Xrotation Yrotation
                        End Site
                        {
                          OFFSET -0.0081 -0.0158 0.008
                        }
                      }
                    }
                  }
                }
              }
            }
          }
        }
      }
    }
  }
  JOINT lThigh
  {
    OFFSET 8.367 -8.2066 0.5982
    CHANNELS 3 Zrotation Xrotation Yrotation
    JOINT lShin
    {
      OFFSET 2.1923 -43.463 -0.4932
      CHANNELS 3 Zrotation Xrotation Yrotation
      JOINT lFoot
      {
        OFFSET 0.7333 -45.8593 -2.6451
        CHANNELS 3 Zrotation Xrotation Yrotation
        End Site
        {
          OFFSET 2.6618 -4.2699 12.3931
        }
      }
    }
  }
  JOINT rThigh
  {
    OFFSET -8.367 -8.2066 0.5982
    CHANNELS 3 Zrotation Xrotation Yrotation
    JOINT rShin
    {
      OFFSET -2.1923 -43.463 -0.4931
      CHANNELS 3 Zrotation Xrotation Yrotation
      JOINT rFoot
      {
        OFFSET -0.7333 -45.8593 -2.6451
        CHANNELS 3 Zrotation Xrotation Yrotation
        End Site
        {
          OFFSET -2.6618 -4.2699 12.3931
        }
      }
    }
  }
}
MOTION
Frames:	4
Frame Time:	0.0333333
0.507187 33.3877 42.6021 -7.01671e-015 7.01671e-015 180 0.201871 4.34885 -0.0588717 0.410018 8.69745 -0.133742 0.410019 8.69746 -0.133742 4.46217e-006 37.8586 -2.55357e-006 2.07073e-007 -43.7247 1.42457e-007 1.28094 -41.3516 20.4612 -65.5521 7.2343 -26.0061 48.8868 -20.0696 -89.6717 -20.3654 -8.66498 -5.2096 6.36111e-015 -4.77083e-015 -4.77083e-015 6.36111e-015 -3.18055e-015 -4.77083e-015 -3.18055e-015 -6.36111e-015 -1.59028e-015 6.36111e-015 -1.59028e-015 -4.77083e-015 9.54166e-015 -9.54166e-015 7.95139e-015 -3.53113e-031 -6.36111e-015 -3.18055e-015 -9.54166e-015 -4.77083e-015 -0 9.54166e-015 -9.54166e-015 7.95139e-015 -3.53113e-031 -6.36111e-015 -3.18055e-015 -9.54166e-015 -4.77083e-015 -0 6.36111e-015 -1.59028e-015 -4.77083e-015 9.54166e-015 -9.54166e-015 7.95139e-015 -3.53113e-031 -6.36111e-015 -3.18055e-015 -9.54166e-015 -4.77083e-015 -0 9.54166e-015 -9.54166e-015 7.95139e-015 -3.53113e-031 -6.36111e-015 -3.18055e-015 -9.54166e-015 -4.77083e-015 -0 6.05522 -27.9856 -22.8563 64.9325 5.73629 18.8766 1.7062 8.38695 87.0334 18.3639 5.25859 -30.4869 7.95139e-016 -2.78299e-015 6.36111e-015 6.62086e-031 -3.97569e-015 9.54166e-015 1.32417e-031 2.38542e-015 -3.18055e-015 7.95139e-016 -2.78299e-015 3.18055e-015 7.95139e-016 -3.18055e-015 3.18055e-015 4.41391e-031 -3.97569e-015 6.36111e-015 2.64834e-031 2.38542e-015 -6.36111e-015 7.95139e-016 -3.18055e-015 3.18055e-015 4.41391e-031 -3.97569e-015 6.36111e-015 2.64834e-031 2.38542e-015 -6.36111e-015 7.95139e-016 -2.78299e-015 3.18055e-015 7.95139e-016 -3.18055e-015 3.18055e-015 4.41391e-031 -3.97569e-015 6.36111e-015 2.64834e-031 2.38542e-015 -6.36111e-015 7.95139e-016 -3.18055e-015 3.18055e-015 4.41391e-031 -3.97569e-015 6.36111e-015 2.64834e-031 2.38542e-015 -6.36111e-015 0.0863262 -9.59368 6.13058 147.207 80.0665 -142.35 23.5079 67.7032 -9.56093 -0.999588 -10.5375 -6.34524 -150.037 79.2125 145.11 -20.9024 67.619 7.34037 
0.511053 33.4667 42.4604 -7.01671e-015 7.01671e-015 180 0.202129 4.5724 -0.0612472 0.411153 9.14456 -0.139406 0.411153 9.14457 -0.139406 6.07167e-007 36.441 -3.67557e-007 1.29834e-007 -43.3801 8.16756e-008 2.18115 -42.0545 21.6861 -65.5867 7.47141 -26.1769 48.7654 -20.3979 -90.1059 -20.234 -9.38903 -4.76987 6.36111e-015 4.77083e-015 -0 -3.33385e-006 1.59943e-006 9.57798e-007 -3.44674e-006 7.49829e-007 1.83056e-007 -3.18055e-015 4.77083e-015 -0 1.27222e-014 4.77083e-015 1.59028e-015 -3.33385e-006 1.59943e-006 9.57798e-007 -3.44674e-006 7.49829e-007 1.83056e-007 1.27222e-014 4.77083e-015 1.59028e-015 -3.33385e-006 1.59943e-006 9.57798e-007 -3.44674e-006 7.49829e-007 1.83056e-007 -3.18055e-015 4.77083e-015 -0 1.27222e-014 4.77083e-015 1.59028e-015 -3.33385e-006 1.59943e-006 9.57798e-007 -3.44674e-006 7.49829e-007 1.83056e-007 1.27222e-014 4.77083e-015 1.59028e-015 -3.33385e-006 1.59943e-006 9.57798e-007 -3.44674e-006 7.49829e-007 1.83056e-007 5.73564 -28.5254 -23.2391 64.9854 5.85916 18.9733 1.7062 8.38693 87.0334 18.1429 4.84267 -30.3738 -1.59028e-015 -2.78299e-015 -0 -1.59028e-015 -3.57812e-015 -6.36111e-015 7.95139e-016 -3.18055e-015 -3.18055e-015 -1.59028e-015 7.95139e-016 3.18055e-015 7.15625e-015 -2.8625e-014 -0 -7.95139e-016 -3.57812e-015 -0 -2.38542e-015 -4.37326e-015 -0 7.15625e-015 -2.8625e-014 -0 -7.95139e-016 -3.57812e-015 -0 -2.38542e-015 -4.37326e-015 -0 -1.59028e-015 7.95139e-016 3.18055e-015 7.15625e-015 -2.8625e-014 -0 -7.95139e-016 -3.57812e-015 -0 -2.38542e-015 -4.37326e-015 -0 7.15625e-015 -2.8625e-014 -0 -7.95139e-016 -3.57812e-015 -0 -2.38542e-015 -4.37326e-015 -0 0.231472 -9.36469 6.10152 145.944 80.3968 -141.143 23.1649 67.5606 -9.22226 -0.994264 -10.1715 -6.29786 -148.969 79.5568 144.046 -20.6158 67.4944 7.05204 
0.514628 33.538 42.3324 -7.01671e-015 7.01671e-015 180 0.202013 4.77525 -0.0633458 0.411501 9.55025 -0.144412 0.411502 9.55025 -0.144412 2.59267e-005 35.1593 -1.4576e-005 2.61229e-007 -43.069 1.28456e-007 3.0205 -42.6781 22.8184 -65.6173 7.68567 -26.331 48.6533 -20.6937 -90.4995 -20.1104 -10.0421 -4.36986 -6.36111e-015 1.59028e-015 -4.77083e-015 -1.90833e-014 -4.77083e-015 -3.18055e-015 3.18055e-015 0 -0 -6.36111e-015 1.59028e-015 -4.77083e-015 -6.36111e-015 -4.77083e-015 3.18055e-015 -3.18055e-015 1.59028e-015 -0 -3.18055e-015 3.18055e-015 -1.59028e-015 -6.36111e-015 -4.77083e-015 3.18055e-015 -3.18055e-015 1.59028e-015 -0 -3.18055e-015 3.18055e-015 -1.59028e-015 -6.36111e-015 1.59028e-015 -4.77083e-015 -6.36111e-015 -4.77083e-015 3.18055e-015 -3.18055e-015 1.59028e-015 -0 -3.18055e-015 3.18055e-015 -1.59028e-015 -6.36111e-015 -4.77083e-015 3.18055e-015 -3.18055e-015 1.59028e-015 -0 -3.18055e-015 3.18055e-015 -1.59028e-015 5.4422 -29.0115 -23.5894 65.033 5.9702 19.0606 1.70622 8.38693 87.0334 17.9441 4.46665 -30.2732 2.38542e-015 -4.77083e-015 3.18055e-015 3.18055e-015 -4.77083e-015 -6.36111e-015 2.38542e-015 -3.97569e-016 3.18055e-015 6.17947e-031 -5.56597e-015 6.36111e-015 -2.38542e-015 -5.1684e-015 6.36111e-015 3.97569e-015 4.37326e-015 -9.54166e-015 1.59028e-015 5.1684e-015 -9.54166e-015 -2.38542e-015 -5.1684e-015 6.36111e-015 3.97569e-015 4.37326e-015 -9.54166e-015 1.59028e-015 5.1684e-015 -9.54166e-015 6.17947e-031 -5.56597e-015 6.36111e-015 -2.38542e-015 -5.1684e-015 6.36111e-015 3.97569e-015 4.37326e-015 -9.54166e-015 1.59028e-015 5.1684e-015 -9.54166e-015 -2.38542e-015 -5.1684e-015 6.36111e-015 3.97569e-015 4.37326e-015 -9.54166e-015 1.59028e-015 5.1684e-015 -9.54166e-015 0.36234 -9.15875 6.07502 144.724 80.6896 -139.974 22.8586 67.4313 -8.91996 -0.989438 -9.84131 -6.25547 -147.942 79.8644 143.024 -20.3598 67.3818 6.79439 
0.518232 33.6093 42.2043 -7.01671e-015 7.01671e-015 180 0.201969 4.97887 -0.0654632 0.412022 9.95747 -0.149473 0.412022 9.95748 -0.149473 2.55372e-006 33.8718 -1.40084e-006 2.73152e-007 -42.7579 1.97639e-007 3.88632 -43.2899 23.9762 -65.6475 7.90001 -26.4852 48.5388 -20.9888 -90.8946 -19.9817 -10.6948 -3.96728 -3.37237e-006 -1.24627e-006 -2.59371e-006 3.37237e-006 1.24627e-006 2.59371e-006 -3.37237e-006 -1.24627e-006 -2.59371e-006 3.18055e-015 1.59028e-015 -1.59028e-015 -3.37237e-006 -1.24627e-006 -2.59371e-006 3.37237e-006 1.24627e-006 2.59371e-006 -3.37237e-006 -1.24627e-006 -2.59371e-006 -3.37237e-006 -1.24627e-006 -2.59371e-006 3.37237e-006 1.24627e-006 2.59371e-006 -3.37237e-006 -1.24627e-006 -2.59371e-006 3.18055e-015 1.59028e-015 -1.59028e-015 -3.37237e-006 -1.24627e-006 -2.59371e-006 3.37237e-006 1.24627e-006 2.59371e-006 -3.37237e-006 -1.24627e-006 -2.59371e-006 -3.37237e-006 -1.24627e-006 -2.59371e-006 3.37237e-006 1.24627e-006 2.59371e-006 -3.37237e-006 -1.24627e-006 -2.59371e-006 5.14383 -29.4962 -23.9445 65.0805 6.08131 19.1478 1.70618 8.38695 87.0334 17.746 4.09023 -30.1739 -4.66848e-006 3.44036e-006 1.82586e-006 6.1406e-007 -4.05442e-006 6.4326e-007 -4.66848e-006 3.44036e-006 1.82586e-006 2.38542e-015 2.78299e-015 -6.36111e-015 -4.66848e-006 3.44036e-006 1.82586e-006 6.1406e-007 -4.05442e-006 6.4326e-007 -4.66848e-006 3.44036e-006 1.82586e-006 -4.66848e-006 3.44036e-006 1.82586e-006 6.1406e-007 -4.05442e-006 6.4326e-007 -4.66848e-006 3.44036e-006 1.82586e-006 2.38542e-015 2.78299e-015 -6.36111e-015 -4.66848e-006 3.44036e-006 1.82586e-006 6.1406e-007 -4.05442e-006 6.4326e-007 -4.66848e-006 3.44036e-006 1.82586e-006 -4.66848e-006 3.44036e-006 1.82586e-006 6.1406e-007 -4.05442e-006 6.4326e-007 -4.66848e-006 3.44036e-006 1.82586e-006 0.493059 -8.95546 6.0482 143.438 80.9763 -138.737 22.5556 67.3017 -8.62098 -0.984702 -9.51064 -6.21344 -146.849 80.1689 141.935 -20.106 67.2689 6.53898 
